0
SECTION
2
HEADER
9
$INSUNITS
70
4
9
$ACADVER
1
AC1014
9
$HANDSEED
5
FFFF
0
ENDSEC
0
SECTION
2
TABLES
0
TABLE
2
VPORT
5
8
100
AcDbSymbolTable
0
ENDTAB
0
TABLE
2
LTYPE
5
5
100
AcDbSymbolTable
0
LTYPE
5
14
100
AcDbSymbolTableRecord
100
AcDbLinetypeTableRecord
2
BYBLOCK
70
0
0
LTYPE
5
15
100
AcDbSymbolTableRecord
100
AcDbLinetypeTableRecord
2
BYLAYER
70
0
0
LTYPE
5
16
100
AcDbSymbolTableRecord
100
AcDbLinetypeTableRecord
2
DASHED
70
0
3
Dashed __ __ __ __ __ __ __ __ __ __ __ __ __ _
72
65
73
2
40
0.75
49
0.5
74
0
49
-0.25
74
0
0
ENDTAB
0
TABLE
2
LAYER
5
2
100
AcDbSymbolTable
70
2
0
LAYER
5
50
100
AcDbSymbolTableRecord
100
AcDbLayerTableRecord
2
0
70
0
62
7
6
CONTINUOUS
0
ENDTAB
0
TABLE
2
STYLE
5
3
100
AcDbSymbolTable
70
1
0
STYLE
5
11
100
AcDbSymbolTableRecord
100
AcDbTextStyleTableRecord
2
STANDARD
70
0
0
ENDTAB
0
TABLE
2
VIEW
5
6
100
AcDbSymbolTable
70
0
0
ENDTAB
0
TABLE
2
UCS
5
7
100
AcDbSymbolTable
70
0
0
ENDTAB
0
TABLE
2
APPID
5
9
100
AcDbSymbolTable
70
2
0
APPID
5
12
100
AcDbSymbolTableRecord
100
AcDbRegAppTableRecord
2
ACAD
70
0
0
ENDTAB
0
TABLE
2
DIMSTYLE
5
A
100
AcDbSymbolTable
70
1
0
ENDTAB
0
TABLE
2
BLOCK_RECORD
5
1
100
AcDbSymbolTable
70
1
0
BLOCK_RECORD
5
1F
100
AcDbSymbolTableRecord
100
AcDbBlockTableRecord
2
*MODEL_SPACE
0
BLOCK_RECORD
5
1B
100
AcDbSymbolTableRecord
100
AcDbBlockTableRecord
2
*PAPER_SPACE
0
ENDTAB
0
ENDSEC
0
SECTION
2
BLOCKS
0
BLOCK
5
20
100
AcDbEntity
100
AcDbBlockBegin
2
*MODEL_SPACE
0
ENDBLK
5
21
100
AcDbEntity
100
AcDbBlockEnd
0
BLOCK
5
1C
100
AcDbEntity
100
AcDbBlockBegin
2
*PAPER_SPACE
0
ENDBLK
5
1D
100
AcDbEntity
100
AcDbBlockEnd
0
ENDSEC
0
SECTION
2
ENTITIES
0
LWPOLYLINE
5
100
100
AcDbEntity
8
0
100
AcDbPolyline
90
8
70
1
43
0.0
10
-98
20
106.24999999999997
10
98
20
106.24999999999999
42
-0.41421356237309381
10
106.24999999999999
20
98
10
106.24999999999999
20
-98
42
-0.41421356237309631
10
98.000000000000043
20
-106.25000000000001
10
-97.999999999999972
20
-106.25
42
-0.41421356237309442
10
-106.24999999999994
20
-98
10
-106.24999999999997
20
98
42
-0.41421356237309631
0
CIRCLE
5
101
100
AcDbEntity
8
0
100
AcDbCircle
10
0
20
0
30
0
40
17.5974999757312
210
-0
220
0
230
1
0
LWPOLYLINE
5
102
100
AcDbEntity
8
0
100
AcDbPolyline
90
12
70
1
43
0.0
10
-2.3472842451629585
20
92.836494075929608
42
0.19891972392717405
10
-9.4185522091319704
20
89.90736173002594
10
-42.455698049467763
20
56.868345525783937
42
0.50120107609027098
10
-40.158788488638812
20
41.010811732680992
10
-16.549826903125883
20
28.182551007624276
42
0.086358868611110667
10
-13.175662823604561
20
27.572983769706298
10
29.455597845684451
20
27.298467994822492
42
0.046450840015893238
10
31.302715879978791
20
27.458449351373233
10
67.991847563777128
20
34.70269532220378
42
0.35638744160465574
10
76.054545544043791
20
44.448892973860303
10
76.301320454058015
20
82.772102340992134
42
0.41610082572039803
10
66.301527770983569
20
92.836494075929608
0
LINE
5
103
100
AcDbEntity
8
0
100
AcDbLine
10
-65.241200458466935
20
52.425194047416745
30
0
11
-50.888736826133545
21
66.778470229662062
31
0
0
ARC
5
104
100
AcDbEntity
8
0
100
AcDbCircle
10
-61.495620467797863
20
77.384790016203652
30
0
40
15.000000000072989
210
-0
220
0
230
1
100
AcDbArc
50
-44.998477056098984
51
135.00162181958873
0
LINE
5
105
100
AcDbEntity
8
0
100
AcDbLine
10
-72.102522413871213
20
87.991091497155338
30
0
11
-86.454969577891745
21
73.63783178355601
31
0
0
ARC
5
106
100
AcDbEntity
8
0
100
AcDbCircle
10
-75.848067632125534
20
63.031530302911463
30
0
40
14.999999999514056
210
0
220
0
230
1
100
AcDbArc
50
135.00162182563923
51
315.00143398285655
0
LINE
5
107
100
AcDbEntity
8
0
100
AcDbLine
10
-72.24172097039397
20
59.425387799224708
30
0
11
-57.889273806191987
21
73.778647512597729
31
0
0
ARC
5
108
100
AcDbEntity
8
0
100
AcDbCircle
10
-61.495620414107499
20
77.384790069900987
30
0
40
5.1000000000017014
210
-0
220
0
230
1
100
AcDbArc
50
-44.998379028568586
51
135.0016221788498
0
LINE
5
109
100
AcDbEntity
8
0
100
AcDbLine
10
-65.101967129494426
20
80.990932519726741
30
0
11
-79.454414293692622
21
66.637672806357472
31
0
0
ARC
5
110
100
AcDbEntity
8
0
100
AcDbCircle
10
-75.848067632043296
20
63.03153030279109
30
0
40
5.1000000000016907
210
0
220
0
230
1
100
AcDbArc
50
135.00162182517511
51
315.00162182517511
0
CIRCLE
5
111
100
AcDbEntity
8
0
100
AcDbCircle
10
-91.749999999999957
20
91.75
30
0
40
9.2000000000000028
210
-0
220
0
230
1
0
CIRCLE
5
112
100
AcDbEntity
8
0
100
AcDbCircle
10
-91.749999999999957
20
-91.75
30
0
40
9.2000000000000028
210
0
220
-0
230
1
0
CIRCLE
5
113
100
AcDbEntity
8
0
100
AcDbCircle
10
-70.718049507523645
20
-70.718049507523645
30
0
40
12.499999999999991
210
0
220
-0
230
1
0
CIRCLE
5
114
100
AcDbEntity
8
0
100
AcDbCircle
10
91.749999999999957
20
-91.75
30
0
40
9.2000000000000028
210
0
220
-0
230
1
0
CIRCLE
5
115
100
AcDbEntity
8
0
100
AcDbCircle
10
91.749999999999957
20
91.75
30
0
40
9.2000000000000028
210
0
220
0
230
1
0
CIRCLE
5
116
100
AcDbEntity
8
0
100
AcDbCircle
10
-71.749999999999957
20
-6.7500000000000071
30
0
40
9.5000000000000107
210
0
220
-0
230
1
0
ENDSEC
0
SECTION
2
OBJECTS
0
DICTIONARY
5
C
100
AcDbDictionary
3
ACAD_GROUP
350
D
3
ACAD_MLINESTYLE
350
17
0
DICTIONARY
5
D
100
AcDbDictionary
0
DICTIONARY
5
1A
330
C
100
AcDbDictionary
0
DICTIONARY
5
17
100
AcDbDictionary
0
ENDSEC
0
EOF
