0
SECTION
2
HEADER
9
$INSUNITS
70
4
9
$ACADVER
1
AC1014
9
$HANDSEED
5
FFFF
0
ENDSEC
0
SECTION
2
TABLES
0
TABLE
2
VPORT
5
8
100
AcDbSymbolTable
0
ENDTAB
0
TABLE
2
LTYPE
5
5
100
AcDbSymbolTable
0
LTYPE
5
14
100
AcDbSymbolTableRecord
100
AcDbLinetypeTableRecord
2
BYBLOCK
70
0
0
LTYPE
5
15
100
AcDbSymbolTableRecord
100
AcDbLinetypeTableRecord
2
BYLAYER
70
0
0
LTYPE
5
16
100
AcDbSymbolTableRecord
100
AcDbLinetypeTableRecord
2
DASHED
70
0
3
Dashed __ __ __ __ __ __ __ __ __ __ __ __ __ _
72
65
73
2
40
0.75
49
0.5
74
0
49
-0.25
74
0
0
ENDTAB
0
TABLE
2
LAYER
5
2
100
AcDbSymbolTable
70
2
0
LAYER
5
50
100
AcDbSymbolTableRecord
100
AcDbLayerTableRecord
2
0
70
0
62
7
6
CONTINUOUS
0
ENDTAB
0
TABLE
2
STYLE
5
3
100
AcDbSymbolTable
70
1
0
STYLE
5
11
100
AcDbSymbolTableRecord
100
AcDbTextStyleTableRecord
2
STANDARD
70
0
0
ENDTAB
0
TABLE
2
VIEW
5
6
100
AcDbSymbolTable
70
0
0
ENDTAB
0
TABLE
2
UCS
5
7
100
AcDbSymbolTable
70
0
0
ENDTAB
0
TABLE
2
APPID
5
9
100
AcDbSymbolTable
70
2
0
APPID
5
12
100
AcDbSymbolTableRecord
100
AcDbRegAppTableRecord
2
ACAD
70
0
0
ENDTAB
0
TABLE
2
DIMSTYLE
5
A
100
AcDbSymbolTable
70
1
0
ENDTAB
0
TABLE
2
BLOCK_RECORD
5
1
100
AcDbSymbolTable
70
1
0
BLOCK_RECORD
5
1F
100
AcDbSymbolTableRecord
100
AcDbBlockTableRecord
2
*MODEL_SPACE
0
BLOCK_RECORD
5
1B
100
AcDbSymbolTableRecord
100
AcDbBlockTableRecord
2
*PAPER_SPACE
0
ENDTAB
0
ENDSEC
0
SECTION
2
BLOCKS
0
BLOCK
5
20
100
AcDbEntity
100
AcDbBlockBegin
2
*MODEL_SPACE
0
ENDBLK
5
21
100
AcDbEntity
100
AcDbBlockEnd
0
BLOCK
5
1C
100
AcDbEntity
100
AcDbBlockBegin
2
*PAPER_SPACE
0
ENDBLK
5
1D
100
AcDbEntity
100
AcDbBlockEnd
0
ENDSEC
0
SECTION
2
ENTITIES
0
LINE
5
100
100
AcDbEntity
8
0
100
AcDbLine
10
-5.8985348875889452
20
-5.1116411147538843
30
0
11
-3.999999999999992
21
-8.4000000000000146
31
0
0
SPLINE
5
101
100
AcDbEntity
8
0
100
AcDbSpline
70
0
71
3
72
14
73
10
74
0
42
0.000000001
43
0.0000000001
44
0.0000000001
40
0
40
0
40
0
40
0
40
0.25056615599094129
40
0.25056615599094129
40
0.50113231198188257
40
0.50113231198188257
40
0.7516984679728238
40
0.7516984679728238
40
1.0022646239637651
40
1.0022646239637651
40
1.0022646239637651
40
1.0022646239637651
10
-5.2993157806499136
20
-4.0000000000000062
30
0
10
-5.4160758028920828
20
-4.0231073213944493
30
0
10
-5.5333674386739968
20
-4.0733040055626137
30
0
10
-5.738743011010663
20
-4.2192696209088503
30
0
10
-5.8265794367571235
20
-4.3149351596062511
30
0
10
-5.9489383579933062
20
-4.5314494540000032
30
0
10
-5.9832924585405625
20
-4.6521041170051998
30
0
10
-5.9877542638469405
20
-4.8909762521987155
30
0
10
-5.9578215976103071
20
-5.0089535207832823
30
0
10
-5.8985348875889452
20
-5.1116411147538843
30
0
0
LINE
5
102
100
AcDbEntity
8
0
100
AcDbLine
10
-5.2993157806499136
20
-4.0000000000000062
30
0
11
5.24130307875771
21
-3.9999999999999996
31
0
0
LINE
5
103
100
AcDbEntity
8
0
100
AcDbLine
10
4.0000000000000222
20
-8.4000000000000004
30
0
11
5.9096212711151495
21
-5.092438935214326
31
0
0
SPLINE
5
104
100
AcDbEntity
8
0
100
AcDbSpline
70
0
71
3
72
14
73
10
74
0
42
0.000000001
43
0.0000000001
44
0.0000000001
40
0
40
0
40
0
40
0
40
0.25060675199262555
40
0.25060675199262555
40
0.50121350398525111
40
0.50121350398525111
40
0.75182025597787661
40
0.75182025597787661
40
1.0024270079705022
40
1.0024270079705022
40
1.0024270079705022
40
1.0024270079705022
10
5.2413030787577117
20
-3.9999999999999964
30
0
10
5.3722027726572863
20
-3.9999999999999956
30
0
10
5.5030189702700669
20
-4.0349392343195865
30
0
10
5.7300029990354053
20
-4.1654997304790777
30
0
10
5.8258881074175122
20
-4.2609568721215201
30
0
10
5.9572906392477831
20
-4.4868408254671808
30
0
10
5.9926477876533299
20
-4.6169802297407267
30
0
10
5.9936151102904125
20
-4.8769818562101603
30
0
10
5.9592306191451652
20
-5.0065130238959732
30
0
10
5.894678638157794
20
-5.1183203346953192
30
0
0
LINE
5
105
100
AcDbEntity
8
0
100
AcDbLine
10
-8.3663130535602761
20
-0.063508326896296236
30
0
11
8.3663130535602779
21
-0.063508326896285522
31
0
0
SPLINE
5
106
100
AcDbEntity
8
0
100
AcDbSpline
70
0
71
3
72
14
73
10
74
0
42
0.000000001
43
0.0000000001
44
0.0000000001
40
0.054692442524610224
40
0.054692442524610224
40
0.054692442524610224
40
0.054692442524610224
40
0.075924375919625448
40
0.075924375919625448
40
0.097846120972337663
40
0.097846120972337663
40
0.1307253724910202
40
0.1307253724910202
40
0.17067380920132694
40
0.17067380920132694
40
0.17067380920132694
40
0.17067380920132694
10
8.3663130535602797
20
-0.063508326896286146
30
0
10
8.4068705335633318
20
-0.063508326896286132
30
0
10
8.4465194398457939
20
-0.061823588217832584
30
0
10
8.5242185178826198
20
-0.05525741803335233
30
0
10
8.5605384158798739
20
-0.050433429138562733
30
0
10
8.6428192388150507
20
-0.036803440146076602
30
0
10
8.6859484901221826
20
-0.026941755448842065
30
0
10
8.7646199649146723
20
-0.0081654478623752885
30
0
10
8.796328605198152
20
7.8924663301172903e-15
30
0
10
8.8149379374157117
20
6.2472590355583872e-15
30
0
0
SPLINE
5
107
100
AcDbEntity
8
0
100
AcDbSpline
70
0
71
3
72
14
73
10
74
0
42
0.000000001
43
0.0000000001
44
0.0000000001
40
0
40
0
40
0
40
0
40
0.014297138140216012
40
0.014297138140216012
40
0.029134366246586191
40
0.029134366246586191
40
0.047558627817624564
40
0.047558627817624564
40
0.067371856744108838
40
0.067371856744108838
40
0.067371856744108838
40
0.067371856744108838
10
-8.3663130535602761
20
-0.063508326896296499
30
0
10
-8.4139701806943297
20
-0.063508326896296485
30
0
10
-8.4601526716921995
20
-0.061166497298391492
30
0
10
-8.5496411355565236
20
-0.052311212397680093
30
0
10
-8.5903763539222791
20
-0.045936377788571701
30
0
10
-8.6704061533695036
20
-0.030825294433282323
30
0
10
-8.7087624730959021
20
-0.021513874944991913
30
0
10
-8.7739115893665147
20
-0.0058883896970326069
30
0
10
-8.7991472580761201
20
-5.7005100304197166e-15
30
0
10
-8.8149379374157011
20
-5.7094947580055706e-15
30
0
0
LINE
5
108
100
AcDbEntity
8
0
100
AcDbLine
10
5.1547005383792364
20
-10.400000000000011
30
0
11
-5.154700538379239
21
-10.400000000000016
31
0
0
ENDSEC
0
SECTION
2
OBJECTS
0
DICTIONARY
5
C
100
AcDbDictionary
3
ACAD_GROUP
350
D
3
ACAD_MLINESTYLE
350
17
0
DICTIONARY
5
D
100
AcDbDictionary
0
DICTIONARY
5
1A
330
C
100
AcDbDictionary
0
DICTIONARY
5
17
100
AcDbDictionary
0
ENDSEC
0
EOF
