0
SECTION
2
HEADER
9
$INSUNITS
70
4
9
$ACADVER
1
AC1014
9
$HANDSEED
5
FFFF
0
ENDSEC
0
SECTION
2
TABLES
0
TABLE
2
VPORT
5
8
100
AcDbSymbolTable
0
ENDTAB
0
TABLE
2
LTYPE
5
5
100
AcDbSymbolTable
0
LTYPE
5
14
100
AcDbSymbolTableRecord
100
AcDbLinetypeTableRecord
2
BYBLOCK
70
0
0
LTYPE
5
15
100
AcDbSymbolTableRecord
100
AcDbLinetypeTableRecord
2
BYLAYER
70
0
0
LTYPE
5
16
100
AcDbSymbolTableRecord
100
AcDbLinetypeTableRecord
2
DASHED
70
0
3
Dashed __ __ __ __ __ __ __ __ __ __ __ __ __ _
72
65
73
2
40
0.75
49
0.5
74
0
49
-0.25
74
0
0
ENDTAB
0
TABLE
2
LAYER
5
2
100
AcDbSymbolTable
70
2
0
LAYER
5
50
100
AcDbSymbolTableRecord
100
AcDbLayerTableRecord
2
0
70
0
62
7
6
CONTINUOUS
0
ENDTAB
0
TABLE
2
STYLE
5
3
100
AcDbSymbolTable
70
1
0
STYLE
5
11
100
AcDbSymbolTableRecord
100
AcDbTextStyleTableRecord
2
STANDARD
70
0
0
ENDTAB
0
TABLE
2
VIEW
5
6
100
AcDbSymbolTable
70
0
0
ENDTAB
0
TABLE
2
UCS
5
7
100
AcDbSymbolTable
70
0
0
ENDTAB
0
TABLE
2
APPID
5
9
100
AcDbSymbolTable
70
2
0
APPID
5
12
100
AcDbSymbolTableRecord
100
AcDbRegAppTableRecord
2
ACAD
70
0
0
ENDTAB
0
TABLE
2
DIMSTYLE
5
A
100
AcDbSymbolTable
70
1
0
ENDTAB
0
TABLE
2
BLOCK_RECORD
5
1
100
AcDbSymbolTable
70
1
0
BLOCK_RECORD
5
1F
100
AcDbSymbolTableRecord
100
AcDbBlockTableRecord
2
*MODEL_SPACE
0
BLOCK_RECORD
5
1B
100
AcDbSymbolTableRecord
100
AcDbBlockTableRecord
2
*PAPER_SPACE
0
ENDTAB
0
ENDSEC
0
SECTION
2
BLOCKS
0
BLOCK
5
20
100
AcDbEntity
100
AcDbBlockBegin
2
*MODEL_SPACE
0
ENDBLK
5
21
100
AcDbEntity
100
AcDbBlockEnd
0
BLOCK
5
1C
100
AcDbEntity
100
AcDbBlockBegin
2
*PAPER_SPACE
0
ENDBLK
5
1D
100
AcDbEntity
100
AcDbBlockEnd
0
ENDSEC
0
SECTION
2
ENTITIES
0
POINT
5
100
100
AcDbEntity
8
0
100
AcDbPoint
10
-1.2831963084176405
20
1.7372200456159059
30
0
0
ARC
5
101
100
AcDbEntity
8
0
100
AcDbCircle
10
-12.190521162799076
20
5.6526564836198423
30
0
40
0.19000000000000683
210
0
220
0
230
1
100
AcDbArc
50
-89.999999999996803
51
14.020916820502723
0
LINE
5
102
100
AcDbEntity
8
0
100
AcDbLine
10
-12.190521162799065
20
5.4626564836198357
30
0
11
-14.342058031046601
21
5.4626564836198002
31
0
0
SPLINE
5
103
100
AcDbEntity
8
0
100
AcDbSpline
70
4
71
2
72
6
73
3
74
0
42
0.000000001
43
0.0000000001
44
0.0000000001
40
0
40
0
40
0
40
0.047921259255740117
40
0.047921259255740117
40
0.047921259255740117
41
1
41
0.52119943533076962
41
1
10
-14.342058031046601
20
5.4626564836198002
30
0
10
-14.557144529728861
20
5.4626564836198002
30
0
10
-14.645396449292427
20
5.8160659180587739
30
0
0
LINE
5
104
100
AcDbEntity
8
0
100
AcDbLine
10
-14.645396449292427
20
5.8160659180587739
30
0
11
-14.991611954705704
21
7.2025040439062957
31
0
0
ARC
5
105
100
AcDbEntity
8
0
100
AcDbCircle
10
-14.807272559378738
20
7.2485365034375162
30
0
40
0.19000000000001238
210
0
220
0
230
1
100
AcDbArc
50
90.000000000009109
51
194.02091682049206
0
LINE
5
106
100
AcDbEntity
8
0
100
AcDbLine
10
-14.807272559378768
20
7.4385365034375281
30
0
11
-12.793435580002386
21
7.4385365034375468
31
0
0
SPLINE
5
107
100
AcDbEntity
8
0
100
AcDbSpline
70
4
71
2
72
6
73
3
74
0
42
0.000000001
43
0.0000000001
44
0.0000000001
40
-0.053563155350275851
40
-0.053563155350275851
40
-0.053563155350275851
40
0
40
0
40
0
41
1
41
1.2860068945967935
41
1
10
-12.793435580002386
20
7.4385365034375468
30
0
10
-12.440649192448936
20
7.438536503437545
30
0
10
-12.375652667430675
20
7.1782545145493053
30
0
0
LINE
5
108
100
AcDbEntity
8
0
100
AcDbLine
10
-12.375652667430671
20
7.1782545145493062
30
0
11
-12.006181767472125
21
5.6986889431510956
31
0
0
SPLINE
5
109
100
AcDbEntity
8
0
100
AcDbSpline
70
4
71
2
72
6
73
3
74
0
42
0.000000001
43
0.0000000001
44
0.0000000001
40
-0.013109713162246208
40
-0.013109713162246208
40
-0.013109713162246208
40
0
40
0
40
0
41
1
41
1.0749686160996814
41
1
10
-8.6816589546844156
20
1.2212162811040994
30
0
10
-8.6267455511939684
20
1.2212162811040994
30
0
10
-8.6551591326875048
20
1.3349999564700876
30
0
0
LINE
5
110
100
AcDbEntity
8
0
100
AcDbLine
10
-8.6551591326875048
20
1.3349999564700874
30
0
11
-10.190963483371805
21
7.4852089226724114
31
0
0
SPLINE
5
111
100
AcDbEntity
8
0
100
AcDbSpline
70
4
71
2
72
6
73
3
74
0
42
0.000000001
43
0.0000000001
44
0.0000000001
40
0
40
0
40
0
40
0.32382566639398336
40
0.32382566639398336
40
0.32382566639398336
41
1
41
0.59405481316880548
41
1
10
-10.190963483371805
20
7.4852089226724114
30
0
10
-10.714255068239982
20
9.5807574837639677
30
0
10
-12.492348341560721
20
9.5807574837639677
30
0
0
LINE
5
112
100
AcDbEntity
8
0
100
AcDbLine
10
-12.492348341560721
20
9.5807574837639677
30
0
11
-16.203223572037167
21
9.5807574837639677
31
0
0
SPLINE
5
113
100
AcDbEntity
8
0
100
AcDbSpline
70
4
71
2
72
6
73
3
74
0
42
0.000000001
43
0.0000000001
44
0.0000000001
40
0
40
0
40
0
40
0.23639936093058114
40
0.23639936093058114
40
0.23639936093058114
41
1
41
0.74544743672316671
41
1
10
-16.203223572037167
20
9.5807574837639677
30
0
10
-17.898901310940719
20
9.580757483763966
30
0
10
-17.493330124528018
20
7.9566264243633809
30
0
0
LINE
5
114
100
AcDbEntity
8
0
100
AcDbLine
10
-17.493330124528018
20
7.9566264243633809
30
0
11
-16.804217178161927
21
5.1970375355973255
31
0
0
SPLINE
5
115
100
AcDbEntity
8
0
100
AcDbSpline
70
4
71
2
72
6
73
3
74
0
42
0.000000001
43
0.0000000001
44
0.0000000001
40
0
40
0
40
0
40
0.30494857484800769
40
0.30494857484800769
40
0.30494857484800769
41
1
41
0.56463425891880648
41
1
10
-16.804217178161927
20
5.1970375355973255
30
0
10
-16.309857153700605
20
3.2173469235608949
30
0
10
-14.633188239288748
20
3.2173469235608949
30
0
0
LINE
5
116
100
AcDbEntity
8
0
100
AcDbLine
10
-14.633188239288746
20
3.2173469235608954
30
0
11
-11.473850213012414
21
3.217346923560886
31
0
0
ARC
5
117
100
AcDbEntity
8
0
100
AcDbCircle
10
-11.473850213012406
20
3.1173469235608975
30
0
40
0.09999999999998975
210
0
220
-0
230
1
100
AcDbArc
50
14.020916820505821
51
90.000000000004079
0
LINE
5
118
100
AcDbEntity
8
0
100
AcDbLine
10
-11.376829478629816
20
3.1415745338405063
30
0
11
-10.957683051745503
21
1.4630807129140633
31
0
0
SPLINE
5
119
100
AcDbEntity
8
0
100
AcDbSpline
70
4
71
2
72
6
73
3
74
0
42
0.000000001
43
0.0000000001
44
0.0000000001
40
-0.037326873414091036
40
-0.037326873414091036
40
-0.037326873414091036
40
0
40
0
40
0
41
1
41
0.52100739361694037
41
1
10
-10.957683051745503
20
1.4630807129140633
30
0
10
-10.897285681722641
20
1.2212162811041016
30
0
10
-10.689843682618461
20
1.2212162811041016
30
0
0
LINE
5
120
100
AcDbEntity
8
0
100
AcDbLine
10
-10.689843682618461
20
1.2212162811041019
30
0
11
-8.6816589546844156
21
1.2212162811040994
31
0
0
ARC
5
121
100
AcDbEntity
8
0
100
AcDbCircle
10
-4.4905211627990669
20
5.6526564836198414
30
0
40
0.18999999999999018
210
0
220
0
230
1
100
AcDbArc
50
-89.999999999999744
51
14.020916820503617
0
LINE
5
122
100
AcDbEntity
8
0
100
AcDbLine
10
-4.490521162799066
20
5.4626564836198508
30
0
11
-6.6420580310466049
21
5.4626564836198002
31
0
0
SPLINE
5
123
100
AcDbEntity
8
0
100
AcDbSpline
70
4
71
2
72
6
73
3
74
0
42
0.000000001
43
0.0000000001
44
0.0000000001
40
0
40
0
40
0
40
0.047921259255740117
40
0.047921259255740117
40
0.047921259255740117
41
1
41
0.52119943533076962
41
1
10
-6.6420580310466049
20
5.4626564836198002
30
0
10
-6.8571445297288802
20
5.4626564836198002
30
0
10
-6.9453964492924092
20
5.8160659180587739
30
0
0
LINE
5
124
100
AcDbEntity
8
0
100
AcDbLine
10
-6.9453964492924092
20
5.8160659180587739
30
0
11
-7.2916119547057248
21
7.2025040439062913
31
0
0
ARC
5
125
100
AcDbEntity
8
0
100
AcDbCircle
10
-7.1072725593787736
20
7.2485365034375171
30
0
40
0.18999999999999684
210
0
220
0
230
1
100
AcDbArc
50
90.000000000000526
51
194.02091682049462
0
LINE
5
126
100
AcDbEntity
8
0
100
AcDbLine
10
-7.1072725593787753
20
7.4385365034375139
30
0
11
-5.0934355800023878
21
7.4385365034375495
31
0
0
SPLINE
5
127
100
AcDbEntity
8
0
100
AcDbSpline
70
4
71
2
72
6
73
3
74
0
42
0.000000001
43
0.0000000001
44
0.0000000001
40
-0.053563155350275851
40
-0.053563155350275851
40
-0.053563155350275851
40
0
40
0
40
0
41
1
41
1.2860068945967935
41
1
10
-5.0934355800023878
20
7.4385365034375495
30
0
10
-4.7406491924489513
20
7.4385365034375468
30
0
10
-4.675652667430743
20
7.1782545145493062
30
0
0
LINE
5
128
100
AcDbEntity
8
0
100
AcDbLine
10
-4.6756526674307413
20
7.1782545145493035
30
0
11
-4.3061817674721317
21
5.6986889431510939
31
0
0
SPLINE
5
129
100
AcDbEntity
8
0
100
AcDbSpline
70
4
71
2
72
6
73
3
74
0
42
0.000000001
43
0.0000000001
44
0.0000000001
40
-0.01734671002947584
40
-0.01734671002947584
40
-0.01734671002947584
40
0
40
0
40
0
41
1
41
1.0749686160996814
41
1
10
-0.9816589546844634
20
1.2212162811040994
30
0
10
-0.87674555119392927
20
1.2212162811040994
30
0
10
-0.90809401818683355
20
1.3467528591784206
30
0
0
LINE
5
130
100
AcDbEntity
8
0
100
AcDbLine
10
-0.90809401818683333
20
1.3467528591784204
30
0
11
-2.4438983688711287
21
7.4969618253807235
31
0
0
SPLINE
5
131
100
AcDbEntity
8
0
100
AcDbSpline
70
4
71
2
72
6
73
3
74
0
42
0.000000001
43
0.0000000001
44
0.0000000001
40
0
40
0
40
0
40
0.32675640067844303
40
0.32675640067844303
40
0.32675640067844303
41
1
41
0.59405481316880548
41
1
10
-2.4438983688711287
20
7.4969618253807235
30
0
10
-2.9642550682400337
20
9.5807574837639677
30
0
10
-4.7923483415607393
20
9.5807574837639677
30
0
0
LINE
5
132
100
AcDbEntity
8
0
100
AcDbLine
10
-4.7923483415607393
20
9.5807574837639677
30
0
11
-8.5032235720371716
21
9.5807574837639677
31
0
0
SPLINE
5
133
100
AcDbEntity
8
0
100
AcDbSpline
70
4
71
2
72
6
73
3
74
0
42
0.000000001
43
0.0000000001
44
0.0000000001
40
0
40
0
40
0
40
0.23639936093058114
40
0.23639936093058114
40
0.23639936093058114
41
1
41
0.74544743672316671
41
1
10
-8.5032235720371716
20
9.5807574837639677
30
0
10
-10.198901310940842
20
9.580757483763966
30
0
10
-9.7933301245280191
20
7.9566264243633809
30
0
0
LINE
5
134
100
AcDbEntity
8
0
100
AcDbLine
10
-9.7933301245280209
20
7.9566264243633809
30
0
11
-9.1042171781619619
21
5.1970375355973255
31
0
0
SPLINE
5
135
100
AcDbEntity
8
0
100
AcDbSpline
70
4
71
2
72
6
73
3
74
0
42
0.000000001
43
0.0000000001
44
0.0000000001
40
0
40
0
40
0
40
0.30494857484800769
40
0.30494857484800769
40
0.30494857484800769
41
1
41
0.56463425891880648
41
1
10
-9.1042171781619619
20
5.1970375355973255
30
0
10
-8.6098571537005864
20
3.2173469235608949
30
0
10
-6.9331882392887278
20
3.2173469235608949
30
0
0
LINE
5
136
100
AcDbEntity
8
0
100
AcDbLine
10
-6.9331882392887278
20
3.2173469235608954
30
0
11
-3.773850213012464
21
3.2173469235608816
31
0
0
ARC
5
137
100
AcDbEntity
8
0
100
AcDbCircle
10
-3.7738502130124645
20
3.1173469235608979
30
0
40
0.099999999999983699
210
0
220
-0
230
1
100
AcDbArc
50
14.020916820506374
51
89.999999999999744
0
LINE
5
138
100
AcDbEntity
8
0
100
AcDbLine
10
-3.6768294786298794
20
3.1415745338405063
30
0
11
-3.2576830517455284
21
1.4630807129140588
31
0
0
SPLINE
5
139
100
AcDbEntity
8
0
100
AcDbSpline
70
4
71
2
72
6
73
3
74
0
42
0.000000001
43
0.0000000001
44
0.0000000001
40
-0.037326873414091036
40
-0.037326873414091036
40
-0.037326873414091036
40
0
40
0
40
0
41
1
41
0.52100739361694037
41
1
10
-3.2576830517455284
20
1.4630807129140613
30
0
10
-3.1972856817226702
20
1.2212162811040999
30
0
10
-2.9898436826184183
20
1.2212162811040994
30
0
0
LINE
5
140
100
AcDbEntity
8
0
100
AcDbLine
10
-2.9898436826184183
20
1.2212162811040994
30
0
11
-0.9816589546844634
21
1.2212162811040994
31
0
0
LINE
5
141
100
AcDbEntity
8
0
100
AcDbLine
10
3.0743473325692783
20
7.1782545145493053
30
0
11
3.443818232527839
21
5.6986889431511809
31
0
0
ARC
5
142
100
AcDbEntity
8
0
100
AcDbCircle
10
3.2594788372003562
20
5.6526564836202455
30
0
40
0.19000000000044537
210
0
220
0
230
1
100
AcDbArc
50
-89.999999999937202
51
14.020916820370841
0
LINE
5
143
100
AcDbEntity
8
0
100
AcDbLine
10
3.2594788372005645
20
5.4626564836198002
30
0
11
1.1079419689533676
21
5.4626564836198002
31
0
0
SPLINE
5
144
100
AcDbEntity
8
0
100
AcDbSpline
70
4
71
2
72
6
73
3
74
0
42
0.000000001
43
0.0000000001
44
0.0000000001
40
0
40
0
40
0
40
0.047921259255740117
40
0.047921259255740117
40
0.047921259255740117
41
1
41
0.52119943533076962
41
1
10
1.1079419689533676
20
5.4626564836198002
30
0
10
0.89285547027110546
20
5.4626564836198002
30
0
10
0.80460355070758105
20
5.8160659180587739
30
0
0
LINE
5
145
100
AcDbEntity
8
0
100
AcDbLine
10
0.80460355070758116
20
5.8160659180587739
30
0
11
0.45838804529427679
21
7.2025040439061794
31
0
0
ARC
5
146
100
AcDbEntity
8
0
100
AcDbCircle
10
0.64272744062122023
20
7.2485365034374336
30
0
40
0.18999999999999906
210
0
220
-0
230
1
100
AcDbArc
50
90
51
194.02091682050352
0
LINE
5
147
100
AcDbEntity
8
0
100
AcDbLine
10
0.64272744062122023
20
7.4385365034374331
30
0
11
2.6565644199976024
21
7.4385365034375468
31
0
0
SPLINE
5
148
100
AcDbEntity
8
0
100
AcDbSpline
70
4
71
2
72
6
73
3
74
0
42
0.000000001
43
0.0000000001
44
0.0000000001
40
-0.053563155350275851
40
-0.053563155350275851
40
-0.053563155350275851
40
0
40
0
40
0
41
1
41
1.2860068945967935
41
1
10
2.6565644199976024
20
7.4385365034375468
30
0
10
3.0093508075510389
20
7.438536503437545
30
0
10
3.0743473325692783
20
7.1782545145493053
30
0
0
LINE
5
149
100
AcDbEntity
8
0
100
AcDbLine
10
5.8872613929243522
20
5.334567275105532
30
0
11
5.3448603904430403
21
7.5066404999609349
31
0
0
SPLINE
5
150
100
AcDbEntity
8
0
100
AcDbSpline
70
4
71
2
72
6
73
3
74
0
42
0.000000001
43
0.0000000001
44
0.0000000001
40
0
40
0
40
0
40
0.32919545647858528
40
0.32919545647858528
40
0.32919545647858528
41
1
41
0.59405481316880548
41
1
10
5.3448603904430403
20
7.5066404999609349
30
0
10
4.8269206090375327
20
9.5807574837639677
30
0
10
2.9576516584392416
20
9.5807574837639677
30
0
0
LINE
5
151
100
AcDbEntity
8
0
100
AcDbLine
10
2.957651658439242
20
9.5807574837639695
30
0
11
-0.75322357203717605
21
9.5807574837639677
31
0
0
SPLINE
5
152
100
AcDbEntity
8
0
100
AcDbSpline
70
4
71
2
72
6
73
3
74
0
42
0.000000001
43
0.0000000001
44
0.0000000001
40
0
40
0
40
0
40
0.23639936093058114
40
0.23639936093058114
40
0.23639936093058114
41
1
41
0.74544743672316671
41
1
10
-0.75322357203717605
20
9.5807574837639677
30
0
10
-2.448901310940732
20
9.580757483763966
30
0
10
-2.0433301245280333
20
7.9566264243633809
30
0
0
LINE
5
153
100
AcDbEntity
8
0
100
AcDbLine
10
-2.0433301245280333
20
7.9566264243633809
30
0
11
-1.3542171781619539
21
5.1970375355973255
31
0
0
SPLINE
5
154
100
AcDbEntity
8
0
100
AcDbSpline
70
4
71
2
72
6
73
3
74
0
42
0.000000001
43
0.0000000001
44
0.0000000001
40
0
40
0
40
0
40
0.30494857484800769
40
0.30494857484800769
40
0.30494857484800769
41
1
41
0.56463425891880648
41
1
10
-1.3542171781619541
20
5.1970375355973255
30
0
10
-0.85985715370057836
20
3.2173469235608949
30
0
10
0.81681176071124462
20
3.2173469235608949
30
0
0
LINE
5
155
100
AcDbEntity
8
0
100
AcDbLine
10
0.81681176071124462
20
3.2173469235608954
30
0
11
4.4475532685787655
21
3.2173469235608949
31
0
0
SPLINE
5
156
100
AcDbEntity
8
0
100
AcDbSpline
70
4
71
2
72
6
73
3
74
0
42
0.000000001
43
0.0000000001
44
0.0000000001
40
-0.29650458503468202
40
-0.29650458503468202
40
-0.29650458503468202
40
0
40
0
40
0
41
1
41
0.84733272863975362
41
1
10
4.4475532685787655
20
3.2173469235608949
30
0
10
6.4159647662777708
20
3.2173469235608949
30
0
10
5.8872613929243522
20
5.334567275105532
30
0
0
ARC
5
157
100
AcDbEntity
8
0
100
AcDbCircle
10
10.959478837200894
20
5.6526564836198459
30
0
40
0.19000000000000794
210
0
220
0
230
1
100
AcDbArc
50
-89.999999999989313
51
14.020916820501805
0
LINE
5
158
100
AcDbEntity
8
0
100
AcDbLine
10
10.95947883720093
20
5.4626564836198375
30
0
11
8.8079419689533527
21
5.4626564836198019
31
0
0
SPLINE
5
159
100
AcDbEntity
8
0
100
AcDbSpline
70
4
71
2
72
6
73
3
74
0
42
0.000000001
43
0.0000000001
44
0.0000000001
40
0
40
0
40
0
40
0.047921259255739486
40
0.047921259255739486
40
0.047921259255739486
41
1
41
0.52119943533076962
41
1
10
8.8079419689533527
20
5.4626564836198019
30
0
10
8.5928554702710773
20
5.4626564836198019
30
0
10
8.5046035507075501
20
5.8160659180587757
30
0
0
LINE
5
160
100
AcDbEntity
8
0
100
AcDbLine
10
8.5046035507075484
20
5.8160659180587775
30
0
11
8.1583880452942701
21
7.2025040439062957
31
0
0
ARC
5
161
100
AcDbEntity
8
0
100
AcDbCircle
10
8.342727440621168
20
7.248536503437518
30
0
40
0.18999999999994799
210
0
220
-0
230
1
100
AcDbArc
50
90
51
194.02091682049752
0
LINE
5
162
100
AcDbEntity
8
0
100
AcDbLine
10
8.342727440621168
20
7.438536503437466
30
0
11
10.356564419997605
21
7.4385365034375495
31
0
0
SPLINE
5
163
100
AcDbEntity
8
0
100
AcDbSpline
70
4
71
2
72
6
73
3
74
0
42
0.000000001
43
0.0000000001
44
0.0000000001
40
-0.053563155350275851
40
-0.053563155350275851
40
-0.053563155350275851
40
0
40
0
40
0
41
1
41
1.2860068945967935
41
1
10
10.356564419997605
20
7.4385365034375495
30
0
10
10.709350807551006
20
7.4385365034375468
30
0
10
10.774347332569253
20
7.1782545145493062
30
0
0
LINE
5
164
100
AcDbEntity
8
0
100
AcDbLine
10
10.774347332569249
20
7.1782545145493035
30
0
11
11.143818232527847
21
5.6986889431510965
31
0
0
LINE
5
165
100
AcDbEntity
8
0
100
AcDbLine
10
14.587284981240744
20
1.3580847123127893
30
0
11
13.051480630556478
21
7.5082936785151144
31
0
0
SPLINE
5
166
100
AcDbEntity
8
0
100
AcDbSpline
70
4
71
2
72
6
73
3
74
0
42
0.000000001
43
0.0000000001
44
0.0000000001
40
0
40
0
40
0
40
0.32961432318914635
40
0.32961432318914635
40
0.32961432318914635
41
1
41
0.59405481316880548
41
1
10
13.051480630556478
20
7.5082936785151144
30
0
10
12.533953673955855
20
9.5807574837639713
30
0
10
10.657651658439205
20
9.5807574837639677
30
0
0
LINE
5
167
100
AcDbEntity
8
0
100
AcDbLine
10
10.657651658439207
20
9.5807574837639713
30
0
11
6.9467764279627708
21
9.5807574837639677
31
0
0
SPLINE
5
168
100
AcDbEntity
8
0
100
AcDbSpline
70
4
71
2
72
6
73
3
74
0
42
0.000000001
43
0.0000000001
44
0.0000000001
40
0
40
0
40
0
40
0.22846591033216279
40
0.22846591033216279
40
0.22846591033216279
41
1
41
0.74544743672316671
41
1
10
6.9467764279627708
20
9.5807574837639677
30
0
10
5.3422743663367811
20
9.580757483763966
30
0
10
5.7424937492868811
20
7.9780580016515454
30
0
0
LINE
5
169
100
AcDbEntity
8
0
100
AcDbLine
10
5.7424937492868811
20
7.9780580016515454
30
0
11
6.4316066956529383
21
5.2184691128855354
31
0
0
SPLINE
5
170
100
AcDbEntity
8
0
100
AcDbSpline
70
4
71
2
72
6
73
3
74
0
42
0.000000001
43
0.0000000001
44
0.0000000001
40
0
40
0
40
0
40
0.29972809025000252
40
0.29972809025000252
40
0.29972809025000252
41
1
41
0.56463425891880648
41
1
10
6.4316066956529383
20
5.2184691128855354
30
0
10
6.9313185235769215
20
3.2173469235608949
30
0
10
8.5168117607111959
20
3.2173469235608958
30
0
0
LINE
5
171
100
AcDbEntity
8
0
100
AcDbLine
10
8.5168117607111942
20
3.2173469235608958
30
0
11
11.676149786987535
21
3.2173469235608998
31
0
0
ARC
5
172
100
AcDbEntity
8
0
100
AcDbCircle
10
11.676149786987573
20
3.1173469235609028
30
0
40
0.099999999999997161
210
0
220
-0
230
1
100
AcDbArc
50
14.020916820512491
51
90.000000000021373
0
LINE
5
173
100
AcDbEntity
8
0
100
AcDbLine
10
11.773170521370169
20
3.141574533840525
30
0
11
12.192316948254467
21
1.4630807129140611
31
0
0
SPLINE
5
174
100
AcDbEntity
8
0
100
AcDbSpline
70
4
71
2
72
6
73
3
74
0
42
0.000000001
43
0.0000000001
44
0.0000000001
40
-0.037326873414091036
40
-0.037326873414091036
40
-0.037326873414091036
40
0
40
0
40
0
41
1
41
0.52100739361694037
41
1
10
12.192316948254467
20
1.4630807129140633
30
0
10
12.252714318277295
20
1.2212162811041016
30
0
10
12.460156317381541
20
1.2212162811041016
30
0
0
LINE
5
175
100
AcDbEntity
8
0
100
AcDbLine
10
12.460156317381541
20
1.2212162811041019
30
0
11
14.468341045315476
21
1.2212162811041016
31
0
0
SPLINE
5
176
100
AcDbEntity
8
0
100
AcDbSpline
70
4
71
2
72
6
73
3
74
0
42
0.000000001
43
0.0000000001
44
0.0000000001
40
-0.021737652378410542
40
-0.021737652378410542
40
-0.021737652378410542
40
0
40
0
40
0
41
1
41
1.0749686160996814
41
1
10
14.468341045315476
20
1.2212162811041016
30
0
10
14.62146319100189
20
1.2212162811041023
30
0
10
14.587284981240744
20
1.3580847123127893
30
0
0
ARC
5
177
100
AcDbEntity
8
0
100
AcDbCircle
10
9.7924018419854697
20
2.1814709264760159
30
0
40
0.39999999999997948
210
0
220
-0
230
1
100
AcDbArc
50
14.02091682051236
51
90
0
LINE
5
178
100
AcDbEntity
8
0
100
AcDbLine
10
9.7924018419854697
20
2.5814709264759954
30
0
11
8.036640191091184
21
2.5814709264760252
31
0
0
ARC
5
179
100
AcDbEntity
8
0
100
AcDbCircle
10
8.036640191091184
20
2.4814709264760095
30
0
40
0.10000000000001563
210
0
220
-0
230
1
100
AcDbArc
50
90
51
194.02091682053668
0
LINE
5
180
100
AcDbEntity
8
0
100
AcDbLine
10
7.9396194567085807
20
2.4572433161963421
30
0
11
8.4580101135856971
21
0.38132077795057978
31
0
0
ARC
5
181
100
AcDbEntity
8
0
100
AcDbCircle
10
8.3609893792031915
20
0.35709316767088284
30
0
40
0.099999999999929728
210
0
220
0
230
1
100
AcDbArc
50
-90.000000000001009
51
14.020916820566631
0
LINE
5
182
100
AcDbEntity
8
0
100
AcDbLine
10
8.3609893792031897
20
0.25709316767095314
30
0
11
5.2144173883038869
21
0.25709316767088208
31
0
0
SPLINE
5
183
100
AcDbEntity
8
0
100
AcDbSpline
70
4
71
5
72
51
73
45
74
0
42
0.000000001
43
0.0000000001
44
0.0000000001
40
0
40
0
40
0
40
0
40
0
40
0
40
0.025000000000000001
40
0.050000000000000003
40
0.075000000000000011
40
0.10000000000000001
40
0.125
40
0.14999999999999999
40
0.17499999999999999
40
0.20000000000000001
40
0.22500000000000001
40
0.25
40
0.27500000000000002
40
0.29999999999999999
40
0.32500000000000001
40
0.35000000000000003
40
0.37500000000000011
40
0.40000000000000008
40
0.4250000000000001
40
0.45000000000000012
40
0.4750000000000002
40
0.50000000000000011
40
0.52500000000000013
40
0.55000000000000016
40
0.57500000000000018
40
0.6000000000000002
40
0.62500000000000022
40
0.65000000000000024
40
0.67500000000000016
40
0.70000000000000018
40
0.72500000000000031
40
0.75000000000000033
40
0.77500000000000036
40
0.80000000000000016
40
0.8250000000000004
40
0.85000000000000031
40
0.87500000000000033
40
0.90000000000000036
40
0.92500000000000038
40
0.9500000000000004
40
0.97500000000000042
40
1
40
1
40
1
40
1
40
1
40
1
41
1
41
1
41
1
41
1
41
1
41
1
41
1
41
1
41
1
41
1
41
1
41
1
41
1
41
1
41
1
41
1
41
1
41
1
41
1
41
1
41
1
41
1
41
1
41
1
41
1
41
1
41
1
41
1
41
1
41
1
41
1
41
1
41
1
41
1
41
1
41
1
41
1
41
1
41
1
41
1
41
1
41
1
41
1
41
1
41
1
10
5.2144173883038869
20
0.2570931676708843
30
0
10
5.2086070816041685
20
0.2570931676708843
30
0
10
5.1963876608571269
20
0.25723042513810745
30
0
10
5.1762620838395401
20
0.25784797453090152
30
0
10
5.1458457655092369
20
0.25924386784389353
30
0
10
5.1019879888718389
20
0.26051727056169433
30
0
10
5.0525916443562746
20
0.25957446080399404
30
0
10
4.9981703049681636
20
0.25478040395489399
30
0
10
4.9395290409323289
20
0.24515595977869453
30
0
10
4.8777307483796273
20
0.23044147981395316
30
0
10
4.8139898817692961
20
0.21084387453610964
30
0
10
4.7495878021733695
20
0.18687501671790785
30
0
10
4.6857818113402816
20
0.15916619515220831
30
0
10
4.6237118230823393
20
0.12826431102958558
30
0
10
4.5643323482099429
20
0.094571300988896004
30
0
10
4.5083670607064175
20
0.058386281752337288
30
0
10
4.4562485695665721
20
0.019915952138059856
30
0
10
4.4080781859628573
20
-0.020701228466016849
30
0
10
4.3635380674955835
20
-0.063379068079530976
30
0
10
4.3219682323007369
20
-0.10805632795820476
30
0
10
4.2825997254204085
20
-0.15466444129841886
30
0
10
4.2447567022428476
20
-0.20309189924547888
30
0
10
4.2080449938522912
20
-0.25315930994903035
30
0
10
4.1726119084508539
20
-0.30456592562284279
30
0
10
4.139102437559492
20
-0.35694718989718432
30
0
10
4.1083806204373197
20
-0.4100125801233967
30
0
10
4.0813088699606004
20
-0.46367113550873307
30
0
10
4.0585274151490047
20
-0.51813913874919515
30
0
10
4.0401732293464265
20
-0.57411532031270252
30
0
10
4.0259058026908612
20
-0.63265123474831153
30
0
10
4.0151161834110249
20
-0.69484724133470177
30
0
10
4.0070844444895082
20
-0.76158848792059697
30
0
10
4.0011441075147447
20
-0.8332935748831849
30
0
10
3.9968772278717291
20
-0.90958029685548336
30
0
10
3.9941265497498346
20
-0.98934344416267361
30
0
10
3.9929086261344349
20
-1.0710489326619288
30
0
10
3.9933577950419163
20
-1.1529620202700008
30
0
10
3.9956597718006441
20
-1.2333929454283401
30
0
10
3.9999852393951807
20
-1.3109554028286907
30
0
10
4.0064374359839228
20
-1.38475846884759
30
0
10
4.0150740606974411
20
-1.4542739530924609
30
0
10
4.023749353238899
20
-1.5062559267931486
30
0
10
4.0312507082536655
20
-1.5431666043246006
30
0
10
4.0366933213032441
20
-1.5668521331837726
30
0
10
4.0395250559465001
20
-1.5784644972952544
30
0
0
LINE
5
184
100
AcDbEntity
8
0
100
AcDbLine
10
4.0395250559465001
20
-1.5784644972952544
30
0
11
5.099108849996532
21
-5.8187055954398659
31
0
0
ARC
5
185
100
AcDbEntity
8
0
100
AcDbCircle
10
5.4871761084814752
20
-5.7217323883569469
30
0
40
0.39999999999995794
210
0
220
0
230
1
100
AcDbArc
50
194.03018364765498
51
270.00000000000517
0
LINE
5
186
100
AcDbEntity
8
0
100
AcDbLine
10
5.4871761084815116
20
-6.1217323883569055
30
0
11
7.405372594368469
21
-6.1217323883569019
31
0
0
SPLINE
5
187
100
AcDbEntity
8
0
100
AcDbSpline
70
4
71
2
72
6
73
3
74
0
42
0.000000001
43
0.0000000001
44
0.0000000001
40
-0.024116008899105361
40
-0.024116008899105361
40
-0.024116008899105361
40
0
40
0
40
0
41
1
41
1.2058645113899815
41
1
10
7.405372594368469
20
-6.1217323883569019
30
0
10
7.5279533051997838
20
-6.1217323883569019
30
0
10
7.4806493979529343
20
-5.9323014140559405
30
0
0
LINE
5
188
100
AcDbEntity
8
0
100
AcDbLine
10
7.4806493979529343
20
-5.9323014140559414
30
0
11
6.4946546431326979
21
-1.9838337729648325
31
0
0
SPLINE
5
189
100
AcDbEntity
8
0
100
AcDbSpline
70
4
71
2
72
6
73
3
74
0
42
0.000000001
43
0.0000000001
44
0.0000000001
40
0
40
0
40
0
40
0.0143257817677344
40
0.0143257817677344
40
0.0143257817677344
41
1
41
0.98654315665680681
41
1
10
6.4946546431326979
20
-1.9838337729648325
30
0
10
6.4662722987846344
20
-1.8701751883842344
30
0
10
6.5435311424304388
20
-1.8701751883842344
30
0
0
LINE
5
190
100
AcDbEntity
8
0
100
AcDbLine
10
6.5435311424304388
20
-1.8701751883842344
30
0
11
8.8991235415588559
21
-1.8701751883842337
31
0
0
ARC
5
191
100
AcDbEntity
8
0
100
AcDbCircle
10
8.8991235415588594
20
-2.0201751883841848
30
0
40
0.14999999999994709
210
0
220
-0
230
1
100
AcDbArc
50
14.020916820483611
51
90.000000000001364
0
LINE
5
192
100
AcDbEntity
8
0
100
AcDbLine
10
9.0446546431327235
20
-1.983833772964837
30
0
11
10.031594918731608
21
-5.9360878015396334
31
0
0
ARC
5
193
100
AcDbEntity
8
0
100
AcDbCircle
10
10.274146754688081
20
-5.8755187758405913
30
0
40
0.24999999999997372
210
0
220
0
230
1
100
AcDbArc
50
194.02091682051048
51
270
0
LINE
5
194
100
AcDbEntity
8
0
100
AcDbLine
10
10.274146754688081
20
-6.1255187758405647
30
0
11
12.279071424934081
21
-6.1255187758405603
31
0
0
LINE
5
195
100
AcDbEntity
8
0
100
AcDbLine
10
12.279071424934081
20
-6.1255187758405603
30
0
11
10.180484779515844
21
2.2783813675945011
31
0
0
LINE
5
196
100
AcDbEntity
8
0
100
AcDbLine
10
16.159103112727617
20
-3.8869299021005443
30
0
11
12.363254209779795
21
-3.8869299021006332
31
0
0
ARC
5
197
100
AcDbEntity
8
0
100
AcDbCircle
10
12.363254209779777
20
-3.9869299021006133
30
0
40
0.099999999999980105
210
0
220
-0
230
1
100
AcDbArc
50
89.999999999989811
51
194.02091682053248
0
LINE
5
198
100
AcDbEntity
8
0
100
AcDbLine
10
12.266233475397206
20
-4.0111575123802652
30
0
11
12.736512679808181
21
-5.8944152191957722
31
0
0
ARC
5
199
100
AcDbEntity
8
0
100
AcDbCircle
10
13.027574882955983
20
-5.8217323883568906
30
0
40
0.30000000000001048
210
0
220
0
230
1
100
AcDbArc
50
194.0209168205146
51
270
0
LINE
5
200
100
AcDbEntity
8
0
100
AcDbLine
10
13.027574882955983
20
-6.121732388356901
30
0
11
17.225128008300622
21
-6.1217323883569019
31
0
0
SPLINE
5
201
100
AcDbEntity
8
0
100
AcDbSpline
70
4
71
2
72
6
73
3
74
0
42
0.000000001
43
0.0000000001
44
0.0000000001
40
-0.29650458503468313
40
-0.29650458503468313
40
-0.29650458503468313
40
0
40
0
40
0
41
1
41
0.84733272863975362
41
1
10
17.225128008300622
20
-6.1217323883569019
30
0
10
19.193539505999606
20
-6.1217323883569019
30
0
10
18.664836132646197
20
-4.0045120368122431
30
0
0
LINE
5
202
100
AcDbEntity
8
0
100
AcDbLine
10
18.664836132646197
20
-4.0045120368122431
30
0
11
18.122435130164888
21
-1.8324388119568935
31
0
0
SPLINE
5
203
100
AcDbEntity
8
0
100
AcDbSpline
70
4
71
2
72
6
73
3
74
0
42
0.000000001
43
0.0000000001
44
0.0000000001
40
0
40
0
40
0
40
0.3302260223361172
40
0.3302260223361172
40
0.3302260223361172
41
1
41
0.59405481316880548
41
1
10
18.122435130164888
20
-1.8324388119568935
30
0
10
17.600645980748716
20
0.25709316767088208
30
0
10
15.735226398161108
20
0.25709316767088208
30
0
0
LINE
5
204
100
AcDbEntity
8
0
100
AcDbLine
10
15.735226398161108
20
0.25709316767088197
30
0
11
11.32862846763957
21
0.25709316767095314
31
0
0
ARC
5
205
100
AcDbEntity
8
0
100
AcDbCircle
10
11.328628467639501
20
0.15709316767095527
30
0
40
0.099999999999997868
210
0
220
-0
230
1
100
AcDbArc
50
89.999999999960309
51
194.02091682052034
0
LINE
5
206
100
AcDbEntity
8
0
100
AcDbLine
10
11.231607733256908
20
0.13286555739131989
30
0
11
11.656112403444578
21
-1.5670856295026918
31
0
0
ARC
5
207
100
AcDbEntity
8
0
100
AcDbCircle
10
12.044195340975028
20
-1.4701751883841718
30
0
40
0.4000000000000612
210
0
220
0
230
1
100
AcDbArc
50
194.02091682051457
51
269.99999999999517
0
LINE
5
208
100
AcDbEntity
8
0
100
AcDbLine
10
12.044195340974994
20
-1.870175188384233
30
0
11
15.471133242049115
21
-1.8701751883842332
31
0
0
ARC
5
209
100
AcDbEntity
8
0
100
AcDbCircle
10
15.471133242049113
20
-2.2701751882869878
30
0
40
0.39999999990276047
210
0
220
-0
230
1
100
AcDbArc
50
14.020916820513568
51
89.999999999999744
0
LINE
5
210
100
AcDbEntity
8
0
100
AcDbLine
10
15.859216179485163
20
-2.1732647471920483
30
0
11
16.256123847110153
21
-3.7627022918210558
31
0
0
ARC
5
211
100
AcDbEntity
8
0
100
AcDbCircle
10
16.159103112727614
20
-3.7869299021006189
30
0
40
0.099999999999925704
210
0
220
0
230
1
100
AcDbArc
50
-89.999999999997954
51
14.020916820487523
0
LWPOLYLINE
5
212
100
AcDbEntity
8
0
100
AcDbPolyline
90
8
70
1
43
0.0
10
-0.23814306504406973
20
-3.6643695459725429
10
1.7328032111199176
20
-3.664369545972546
42
-0.34418030429126301
10
1.926836840362385
20
-3.8158829424310476
10
1.9518256032540524
20
-3.915882942431026
42
-0.48789562948880472
10
1.7577919740115799
20
-4.1643695459725443
10
-0.2131543021523585
20
-4.1643695459725292
42
-0.34418030429135243
10
-0.40718793139482579
20
-4.0128561495140254
10
-0.43217669428654931
20
-3.9128561495140364
42
-0.48789562948880227
0
ARC
5
213
100
AcDbEntity
8
0
100
AcDbCircle
10
3.4031061745168723
20
-1.5474364824599685
30
0
40
0.10000000000001563
210
-0
220
0
230
1
100
AcDbArc
50
-90
51
14.030183647638735
0
LINE
5
214
100
AcDbEntity
8
0
100
AcDbLine
10
3.5001229891381405
20
-1.5231931806892598
30
0
11
3.1688354249241306
21
-0.19744702170462314
31
0
0
ARC
5
215
100
AcDbEntity
8
0
100
AcDbCircle
10
2.5867345371967065
20
-0.34290683232908736
30
0
40
0.599999999999967
210
0
220
-0
230
1
100
AcDbArc
50
14.030183647662691
51
90
0
LINE
5
216
100
AcDbEntity
8
0
100
AcDbLine
10
2.5867345371967065
20
0.25709316767087981
30
0
11
-1.9641495337648651
21
0.25709316767088208
31
0
0
SPLINE
5
217
100
AcDbEntity
8
0
100
AcDbSpline
70
4
71
2
72
6
73
3
74
0
42
0.000000001
43
0.0000000001
44
0.0000000001
40
0
40
0
40
0
40
0.23639936093058114
40
0.23639936093058114
40
0.23639936093058114
41
1
41
0.74544743672316671
41
1
10
-1.9641495337648651
20
0.25709316767088208
30
0
10
-3.659827272668474
20
0.25709316767090318
30
0
10
-3.2542560862557486
20
-1.3670378917296933
30
0
0
LINE
5
218
100
AcDbEntity
8
0
100
AcDbLine
10
-3.254256086255749
20
-1.367037891729693
30
0
11
-2.5651431398896429
21
-4.1266267804957435
31
0
0
SPLINE
5
219
100
AcDbEntity
8
0
100
AcDbSpline
70
4
71
2
72
6
73
3
74
0
42
0.000000001
43
0.0000000001
44
0.0000000001
40
0
40
0
40
0
40
0.30494857484800841
40
0.30494857484800841
40
0.30494857484800841
41
1
41
0.56463425891880648
41
1
10
-2.5651431398896429
20
-4.1266267804957435
30
0
10
-2.0707831154282497
20
-6.1063173925321568
30
0
10
-0.39411420101639122
20
-6.1063173925321568
30
0
0
LINE
5
220
100
AcDbEntity
8
0
100
AcDbLine
10
-0.39411420101639127
20
-6.1063173925321568
30
0
11
3.6964090228063999
21
-6.1063173925321568
31
0
0
SPLINE
5
221
100
AcDbEntity
8
0
100
AcDbSpline
70
4
71
2
72
6
73
3
74
0
42
0.000000001
43
0.0000000001
44
0.0000000001
40
-0.15603545650964279
40
-0.15603545650964279
40
-0.15603545650964279
40
0
40
0
40
0
41
1
41
0.6192312861392183
41
1
10
3.6964090228063999
20
-6.1063173925321568
30
0
10
4.7187417340742188
20
-6.1063173925321568
30
0
10
4.4166816856127422
20
-4.8975338694299637
30
0
0
LINE
5
222
100
AcDbEntity
8
0
100
AcDbLine
10
4.4166816856127413
20
-4.8975338694299637
30
0
11
4.0361382509103603
21
-3.3746756296992455
31
0
0
SPLINE
5
223
100
AcDbEntity
8
0
100
AcDbSpline
70
4
71
2
72
6
73
3
74
0
42
0.000000001
43
0.0000000001
44
0.0000000001
40
0
40
0
40
0
40
0.20456310194982688
40
0.20456310194982688
40
0.20456310194982688
41
1
41
0.54342900535261185
41
1
10
4.0361382509103603
20
-3.3746756296992455
30
0
10
3.7294663702931752
20
-2.147436482459991
30
0
10
2.4919541683480828
20
-2.147436482459991
30
0
0
LINE
5
224
100
AcDbEntity
8
0
100
AcDbLine
10
2.4919541683480819
20
-2.147436482459991
30
0
11
-0.54601199314327609
21
-2.1474364824599905
31
0
0
ARC
5
225
100
AcDbEntity
8
0
100
AcDbCircle
10
-0.54601199314327631
20
-1.7474364824599822
30
0
40
0.40000000000000846
210
0
220
0
230
1
100
AcDbArc
50
194.03018364764733
51
270
0
LINE
5
226
100
AcDbEntity
8
0
100
AcDbLine
10
-0.93407925162828143
20
-1.8444096895428619
30
0
11
-0.9522535552180742
21
-1.7716797842307446
31
0
0
ARC
5
227
100
AcDbEntity
8
0
100
AcDbCircle
10
-0.85523674059686072
20
-1.7474364824599642
30
0
40
0.099999999999980105
210
0
220
0
230
1
100
AcDbArc
50
90.000000000000057
51
194.03018364768621
0
LINE
5
228
100
AcDbEntity
8
0
100
AcDbLine
10
-0.85523674059686083
20
-1.6474364824599841
30
0
11
3.4031061745168723
21
-1.6474364824599841
31
0
0
LWPOLYLINE
5
229
100
AcDbEntity
8
0
100
AcDbPolyline
90
8
70
1
43
0.0
10
-4.5170055721569602
20
0.25709316767094292
10
-6.3488808221327941
20
0.25709316767088403
42
0.48784557128073947
10
-6.4459015565153575
20
0.13286555739131975
10
-4.9635652479233237
20
-5.8032278336506495
42
0.34422552891594366
10
-4.5754823103929372
20
-6.1063173925321399
10
-2.8716493918528885
20
-6.1063173925321532
42
0.48784557128062528
10
-2.6776079230876411
20
-5.8578621719729096
10
-4.1289226346265675
20
-0.045996391210626486
42
0.34422552891601527
0
LWPOLYLINE
5
230
100
AcDbEntity
8
0
100
AcDbPolyline
90
8
70
1
43
0.0
10
-5.0955322585599028
20
2.5738335860175008
10
-6.9274075085357323
20
2.5738335860174795
42
0.48784557128068329
10
-7.0244282429183338
20
2.4496059757378807
10
-6.681664873970159
20
1.0769921111842418
42
0.34422552891595148
10
-6.293581936439705
20
0.77390255230273319
10
-4.4617066864638852
20
0.77390255230273519
42
0.48784557128064787
10
-4.3646859520813006
20
0.89813016258233325
10
-4.7074493210295065
20
2.2707440271359545
42
0.34422552891596236
0
LINE
5
231
100
AcDbEntity
8
0
100
AcDbLine
10
-8.6887927676811483
20
-1.9459475781046169
30
0
11
-7.7255689437703756
21
-5.8032278336505803
31
0
0
ARC
5
232
100
AcDbEntity
8
0
100
AcDbCircle
10
-7.337486006239935
20
-5.7063173925321129
30
0
40
0.40000000000003977
210
0
220
0
230
1
100
AcDbArc
50
194.02091682050758
51
270
0
LINE
5
233
100
AcDbEntity
8
0
100
AcDbLine
10
-7.337486006239935
20
-6.1063173925321532
30
0
11
-5.5312750850634052
21
-6.106317392532139
31
0
0
ARC
5
234
100
AcDbEntity
8
0
100
AcDbCircle
10
-5.5312750850634052
20
-6.0063173925321767
30
0
40
0.099999999999962341
210
-0
220
0
230
1
100
AcDbArc
50
-90
51
14.020916820520132
0
LINE
5
235
100
AcDbEntity
8
0
100
AcDbLine
10
-5.4342543506808463
20
-5.9820897822525501
30
0
11
-6.9165906592728676
21
-0.045996391210572085
31
0
0
ARC
5
236
100
AcDbEntity
8
0
100
AcDbCircle
10
-7.3046735968032195
20
-0.14290683232909274
30
0
40
0.39999999999996655
210
0
220
-0
230
1
100
AcDbArc
50
14.020916820518083
51
90
0
LINE
5
237
100
AcDbEntity
8
0
100
AcDbLine
10
-7.3046735968032195
20
0.25709316767087381
30
0
11
-12.514149533764874
21
0.25709316767088097
31
0
0
SPLINE
5
238
100
AcDbEntity
8
0
100
AcDbSpline
70
4
71
2
72
6
73
3
74
0
42
0.000000001
43
0.0000000001
44
0.0000000001
40
0
40
0
40
0
40
0.2289279096443444
40
0.2289279096443444
40
0.2289279096443444
41
1
41
0.74544743672316671
41
1
10
-12.514149533764874
20
0.25709316767088097
30
0
10
-14.123982514055108
20
0.25709316767090318
30
0
10
-13.723450218387288
20
-1.3468593898095973
30
0
0
LINE
5
239
100
AcDbEntity
8
0
100
AcDbLine
10
-13.723450218387288
20
-1.346859389809598
30
0
11
-12.610624608409807
21
-5.8032278336505625
31
0
0
ARC
5
240
100
AcDbEntity
8
0
100
AcDbCircle
10
-12.222541670879414
20
-5.7063173925320267
30
0
40
0.40000000000001124
210
0
220
0
230
1
100
AcDbArc
50
194.02091682051872
51
270
0
LINE
5
241
100
AcDbEntity
8
0
100
AcDbLine
10
-12.222541670879414
20
-6.1063173925320369
30
0
11
-10.436401307069499
21
-6.1063173925321284
31
0
0
ARC
5
242
100
AcDbEntity
8
0
100
AcDbCircle
10
-10.436401307069499
20
-6.006317392532142
30
0
40
0.099999999999985656
210
-0
220
0
230
1
100
AcDbArc
50
-90
51
14.020916820543604
0
LINE
5
243
100
AcDbEntity
8
0
100
AcDbLine
10
-10.339380572686927
20
-5.9820897822524701
30
0
11
-11.335169016984871
21
-1.9944027986638502
31
0
0
ARC
5
244
100
AcDbEntity
8
0
100
AcDbCircle
10
-11.238148282602317
20
-1.9701751883841803
30
0
40
0.09999999999996706
210
0
220
-0
230
1
100
AcDbArc
50
89.99999999999288
51
194.02091682054493
0
LINE
5
245
100
AcDbEntity
8
0
100
AcDbLine
10
-11.238148282602305
20
-1.8701751883842133
30
0
11
-8.7858135020637373
21
-1.870175188384231
31
0
0
ARC
5
246
100
AcDbEntity
8
0
100
AcDbCircle
10
-8.7858135020637373
20
-1.9701751883842156
30
0
40
0.099999999999985045
210
0
220
-0
230
1
100
AcDbArc
50
14.020916820500389
51
90
0
ARC
5
247
100
AcDbEntity
8
0
100
AcDbCircle
10
-13.178334445549886
20
-6.0063173925322131
30
0
40
0.099999999999962341
210
-0
220
0
230
1
100
AcDbArc
50
-90
51
14.020916820545073
0
LINE
5
248
100
AcDbEntity
8
0
100
AcDbLine
10
-13.081313711167336
20
-5.9820897822525438
30
0
11
-13.475549998061243
21
-4.4033499216855478
31
0
0
ARC
5
249
100
AcDbEntity
8
0
100
AcDbCircle
10
-13.86363293559166
20
-4.5002603628040507
30
0
40
0.40000000000002689
210
0
220
-0
230
1
100
AcDbArc
50
14.020916820513332
51
90
0
LINE
5
250
100
AcDbEntity
8
0
100
AcDbLine
10
-13.86363293559166
20
-4.1002603628040237
30
0
11
-17.965206859286852
21
-4.1002603628040548
31
0
0
ARC
5
251
100
AcDbEntity
8
0
100
AcDbCircle
10
-17.965206859286887
20
-4.000260362804041
30
0
40
0.10000000000001384
210
0
220
0
230
1
100
AcDbArc
50
194.0209168205194
51
270.00000000002035
0
LINE
5
252
100
AcDbEntity
8
0
100
AcDbLine
10
-18.062227593669494
20
-4.0244879730836782
30
0
11
-18.137142333597367
21
-3.7244879730836891
31
0
0
ARC
5
253
100
AcDbEntity
8
0
100
AcDbCircle
10
-18.040121599214803
20
-3.7002603628040158
30
0
40
0.099999999999980105
210
0
220
-0
230
1
100
AcDbArc
50
89.999999999983714
51
194.0209168205453
0
LINE
5
254
100
AcDbEntity
8
0
100
AcDbLine
10
-18.040121599214775
20
-3.6002603628040357
30
0
11
-14.617081215639477
21
-3.6002603628040535
31
0
0
SPLINE
5
255
100
AcDbEntity
8
0
100
AcDbSpline
70
4
71
2
72
6
73
3
74
0
42
0.000000001
43
0.0000000001
44
0.0000000001
40
0
40
0
40
0
40
0.12691571986978298
40
0.12691571986978298
40
0.12691571986978298
41
1
41
0.66666666666666674
41
1
10
-14.617081215639477
20
-3.6002603628040535
30
0
10
-13.676094149535956
20
-3.6002603628040535
30
0
10
-13.892641232425937
20
-2.7330862268528264
30
0
0
LINE
5
256
100
AcDbEntity
8
0
100
AcDbLine
10
-13.892641232425937
20
-2.7330862268528264
30
0
11
-14.347783859634571
21
-0.91044373628285657
31
0
0
SPLINE
5
257
100
AcDbEntity
8
0
100
AcDbSpline
70
4
71
2
72
6
73
3
74
0
42
0.000000001
43
0.0000000001
44
0.0000000001
40
0
40
0
40
0
40
0.20159792006884689
40
0.20159792006884689
40
0.20159792006884689
41
1
41
0.66666666666666674
41
1
10
-14.347783859634571
20
-0.91044373628285646
30
0
10
-14.639336271354274
20
0.25709316767088097
30
0
10
-15.877442486919936
20
0.25709316767088097
30
0
0
LINE
5
258
100
AcDbEntity
8
0
100
AcDbLine
10
-15.877442486919938
20
0.25709316767088086
30
0
11
-21.217464847249175
21
0.25709316767091206
31
0
0
ARC
5
259
100
AcDbEntity
8
0
100
AcDbCircle
10
-21.217464847249175
20
0.15709316767095416
30
0
40
0.0999999999999579
210
0
220
-0
230
1
100
AcDbArc
50
90
51
194.02091682052472
0
LINE
5
260
100
AcDbEntity
8
0
100
AcDbLine
10
-21.314485581631729
20
0.13286555739132053
30
0
11
-20.890044490699257
21
-1.56683102304503
31
0
0
ARC
5
261
100
AcDbEntity
8
0
100
AcDbCircle
10
-20.793023756316661
20
-1.5426034127653998
30
0
40
0.10000000000000132
210
0
220
0
230
1
100
AcDbArc
50
194.0209168205169
51
270
0
LINE
5
262
100
AcDbEntity
8
0
100
AcDbLine
10
-20.793023756316661
20
-1.642603412765401
30
0
11
-16.57535732724924
21
-1.6426034127653788
31
0
0
ARC
5
263
100
AcDbEntity
8
0
100
AcDbCircle
10
-16.575357327249243
20
-1.7426034127651318
30
0
40
0.099999999999753134
210
0
220
-0
230
1
100
AcDbArc
50
14.020916820493062
51
89.999999999997954
0
LINE
5
264
100
AcDbEntity
8
0
100
AcDbLine
10
-16.478336592866874
20
-1.7183758024856013
30
0
11
-16.403421852938955
21
-2.0183758024857781
31
0
0
ARC
5
265
100
AcDbEntity
8
0
100
AcDbCircle
10
-16.50044258732153
20
-2.0426034127654065
30
0
40
0.099999999999980382
210
0
220
0
230
1
100
AcDbArc
50
-90
51
14.020916820518897
0
LINE
5
266
100
AcDbEntity
8
0
100
AcDbLine
10
-16.50044258732153
20
-2.142603412765387
30
0
11
-20.062331368258853
21
-2.142603412765387
31
0
0
SPLINE
5
267
100
AcDbEntity
8
0
100
AcDbSpline
70
4
71
2
72
6
73
3
74
0
42
0.000000001
43
0.0000000001
44
0.0000000001
40
0
40
0
40
0
40
0.12129606488372315
40
0.12129606488372315
40
0.12129606488372315
41
1
41
0.62328439130893543
41
1
10
-20.062331368258853
20
-2.142603412765387
30
0
10
-20.903730715617371
20
-2.142603412765387
30
0
10
-20.679500140257208
20
-3.0405464967671989
30
0
0
LINE
5
268
100
AcDbEntity
8
0
100
AcDbLine
10
-20.679500140257211
20
-3.0405464967671998
30
0
11
-20.234174099065786
21
-4.8238779544483403
31
0
0
SPLINE
5
269
100
AcDbEntity
8
0
100
AcDbSpline
70
4
71
2
72
6
73
3
74
0
42
0.000000001
43
0.0000000001
44
0.0000000001
40
-0.19961387713635181
40
-0.19961387713635181
40
-0.19961387713635181
40
0
40
0
40
0
41
1
41
0.62685746451010449
41
1
10
-20.234174099065786
20
-4.8238779544483403
30
0
10
-19.913928709141253
20
-6.1063173925324605
30
0
10
-18.814206614175237
20
-6.106317392532425
30
0
0
LINE
5
270
100
AcDbEntity
8
0
100
AcDbLine
10
-18.814206614175241
20
-6.1063173925324268
30
0
11
-13.178334445549886
21
-6.1063173925321754
31
0
0
ENDSEC
0
SECTION
2
OBJECTS
0
DICTIONARY
5
C
100
AcDbDictionary
3
ACAD_GROUP
350
D
3
ACAD_MLINESTYLE
350
17
0
DICTIONARY
5
D
100
AcDbDictionary
0
DICTIONARY
5
1A
330
C
100
AcDbDictionary
0
DICTIONARY
5
17
100
AcDbDictionary
0
ENDSEC
0
EOF
