0
SECTION
2
HEADER
9
$INSUNITS
70
4
9
$ACADVER
1
AC1014
9
$HANDSEED
5
FFFF
0
ENDSEC
0
SECTION
2
TABLES
0
TABLE
2
VPORT
5
8
100
AcDbSymbolTable
0
ENDTAB
0
TABLE
2
LTYPE
5
5
100
AcDbSymbolTable
0
LTYPE
5
14
100
AcDbSymbolTableRecord
100
AcDbLinetypeTableRecord
2
BYBLOCK
70
0
0
LTYPE
5
15
100
AcDbSymbolTableRecord
100
AcDbLinetypeTableRecord
2
BYLAYER
70
0
0
LTYPE
5
16
100
AcDbSymbolTableRecord
100
AcDbLinetypeTableRecord
2
DASHED
70
0
3
Dashed __ __ __ __ __ __ __ __ __ __ __ __ __ _
72
65
73
2
40
0.75
49
0.5
74
0
49
-0.25
74
0
0
ENDTAB
0
TABLE
2
LAYER
5
2
100
AcDbSymbolTable
70
2
0
LAYER
5
50
100
AcDbSymbolTableRecord
100
AcDbLayerTableRecord
2
0
70
0
62
7
6
CONTINUOUS
0
ENDTAB
0
TABLE
2
STYLE
5
3
100
AcDbSymbolTable
70
1
0
STYLE
5
11
100
AcDbSymbolTableRecord
100
AcDbTextStyleTableRecord
2
STANDARD
70
0
0
ENDTAB
0
TABLE
2
VIEW
5
6
100
AcDbSymbolTable
70
0
0
ENDTAB
0
TABLE
2
UCS
5
7
100
AcDbSymbolTable
70
0
0
ENDTAB
0
TABLE
2
APPID
5
9
100
AcDbSymbolTable
70
2
0
APPID
5
12
100
AcDbSymbolTableRecord
100
AcDbRegAppTableRecord
2
ACAD
70
0
0
ENDTAB
0
TABLE
2
DIMSTYLE
5
A
100
AcDbSymbolTable
70
1
0
ENDTAB
0
TABLE
2
BLOCK_RECORD
5
1
100
AcDbSymbolTable
70
1
0
BLOCK_RECORD
5
1F
100
AcDbSymbolTableRecord
100
AcDbBlockTableRecord
2
*MODEL_SPACE
0
BLOCK_RECORD
5
1B
100
AcDbSymbolTableRecord
100
AcDbBlockTableRecord
2
*PAPER_SPACE
0
ENDTAB
0
ENDSEC
0
SECTION
2
BLOCKS
0
BLOCK
5
20
100
AcDbEntity
100
AcDbBlockBegin
2
*MODEL_SPACE
0
ENDBLK
5
21
100
AcDbEntity
100
AcDbBlockEnd
0
BLOCK
5
1C
100
AcDbEntity
100
AcDbBlockBegin
2
*PAPER_SPACE
0
ENDBLK
5
1D
100
AcDbEntity
100
AcDbBlockEnd
0
ENDSEC
0
SECTION
2
ENTITIES
0
SPLINE
5
100
100
AcDbEntity
8
0
100
AcDbSpline
70
0
71
3
72
10
73
6
74
0
42
0.000000001
43
0.0000000001
44
0.0000000001
40
0
40
0
40
0
40
0
40
0.0072677377550296454
40
0.0072677377550296454
40
0.014535475510059291
40
0.014535475510059291
40
0.014535475510059291
40
0.014535475510059291
10
1.9905203893737839
20
15.111827544660967
30
0
10
1.9930526742370023
20
15.135920625751538
30
0
10
1.9946860026149471
20
15.160108225586184
30
0
10
1.9961423735449901
20
15.20853794052787
30
0
10
1.9959654084972414
20
15.232780136328151
30
0
10
1.9948788806893498
20
15.25698155117084
30
0
0
LINE
5
101
100
AcDbEntity
8
0
100
AcDbLine
10
1.9905203893737839
20
15.111827544660967
30
0
11
1.8413720140763719
21
13.692775544326206
31
0
0
SPLINE
5
102
100
AcDbEntity
8
0
100
AcDbSpline
70
0
71
3
72
14
73
10
74
0
42
0.000000001
43
0.0000000001
44
0.0000000001
40
-0.13011540085098144
40
-0.13011540085098144
40
-0.13011540085098144
40
-0.13011540085098144
40
-0.088310126919211862
40
-0.088310126919211862
40
-0.049061181621784362
40
-0.049061181621784362
40
-0.018869685239147831
40
-0.018869685239147831
40
0
40
0
40
0
40
0
10
0.97462992095948131
20
12.89655475923373
30
0
10
1.1135845957536592
20
12.886053552812724
30
0
10
1.2549733924321855
20
12.917013786153852
30
0
10
1.4941985216140183
20
13.042627131249183
30
0
10
1.5942080501465992
20
13.132353633268481
30
0
10
1.7291058487841757
20
13.320465926952973
30
0
10
1.7739479550622281
20
13.412025880059993
30
0
10
1.8221590968848098
20
13.568311341051945
30
0
10
1.8347972832530199
20
13.630221159081374
30
0
10
1.8413720139206795
20
13.692775542844874
30
0
0
ARC
5
103
100
AcDbEntity
8
0
100
AcDbCircle
10
1.4710455076283324e-14
20
-1.0347278589506459e-12
30
0
40
12.933330125716667
210
0
220
-0
230
1
100
AcDbArc
50
85.678207463495454
51
94.321792536459981
0
SPLINE
5
104
100
AcDbEntity
8
0
100
AcDbSpline
70
0
71
3
72
16
73
12
74
0
42
0.000000001
43
0.0000000001
44
0.0000000001
40
-0.13011655358668259
40
-0.13011655358668259
40
-0.13011655358668259
40
-0.13011655358668259
40
-0.10483460386039467
40
-0.10483460386039467
40
-0.066444467236369625
40
-0.066444467236369625
40
-0.03691359291019651
40
-0.03691359291019651
40
-0.01419753573621719
40
-0.01419753573621719
40
-2.4801155977236382e-12
40
-2.4801155977236382e-12
40
-2.4801155977236382e-12
40
-2.4801155977236382e-12
10
-1.8413720139206711
20
13.692775542844872
30
0
10
-1.8325630694100967
20
13.608964034310185
30
0
10
-1.8128530873918276
20
13.526288062065293
30
0
10
-1.7368642895353739
20
13.328116979205355
30
0
10
-1.6666711926186957
20
13.217724969133029
30
0
10
-1.5061571646269223
20
13.058050761220553
30
0
10
-1.4242103535603656
20
13.000655948637778
30
0
10
-1.2652553367125652
20
12.929474112372052
30
0
10
-1.1915473965892438
20
12.908724840986121
30
0
10
-1.0693703233689322
20
12.894064418005151
30
0
10
-1.0218204731366991
20
12.89298843280198
30
0
10
-0.97462992095947776
20
12.896554759233734
30
0
0
LINE
5
105
100
AcDbEntity
8
0
100
AcDbLine
10
-1.8413720139207224
20
13.692775542845341
30
0
11
-1.9905203893773806
21
15.111827544695222
31
0
0
SPLINE
5
106
100
AcDbEntity
8
0
100
AcDbSpline
70
0
71
3
72
10
73
6
74
0
42
0.000000001
43
0.0000000001
44
0.0000000001
40
-0.014535475509950133
40
-0.014535475509950133
40
-0.014535475509950133
40
-0.014535475509950133
40
-0.0072677377561371119
40
-0.0072677377561371119
40
-2.324091724652985e-12
40
-2.324091724652985e-12
40
-2.324091724652985e-12
40
-2.324091724652985e-12
10
-1.9948788806893463
20
15.256981551170853
30
0
10
-1.9959654084970566
20
15.232780136332213
30
0
10
-1.9961423735449264
20
15.208537940536011
30
0
10
-1.9946860026157331
20
15.160108225602393
30
0
10
-1.993052674238518
20
15.135920625771778
30
0
10
-1.9905203893763257
20
15.111827544685179
30
0
0
ARC
5
107
100
AcDbEntity
8
0
100
AcDbCircle
10
1.4710455076283324e-14
20
-1.0347278589506459e-12
30
0
40
15.386845934154929
210
0
220
0
230
1
100
AcDbArc
50
97.449271137097796
51
102.49999999999923
0
LINE
5
108
100
AcDbEntity
8
0
100
AcDbLine
10
-3.3303229937127581
20
15.022116247681403
30
0
11
-2.7986925152551914
21
12.624086127696961
31
0
0
ARC
5
109
100
AcDbEntity
8
0
100
AcDbCircle
10
1.4710455076283324e-14
20
-1.0347278589506459e-12
30
0
40
12.930592807542977
210
0
220
-0
230
1
100
AcDbArc
50
77.500000000001009
51
102.49999999999906
0
LINE
5
110
100
AcDbEntity
8
0
100
AcDbLine
10
2.7986925152552051
20
12.624086127696952
30
0
11
3.330322993712755
21
15.022116247681399
31
0
0
ARC
5
111
100
AcDbEntity
8
0
100
AcDbCircle
10
1.4710455076283324e-14
20
-1.0347278589506459e-12
30
0
40
15.386845934152209
210
0
220
-0
230
1
100
AcDbArc
50
77.500000000000881
51
82.55072886290229
0
LINE
5
112
100
AcDbEntity
8
0
100
AcDbLine
10
1.443563255859186
20
13.73458692896844
30
0
11
1.7067539438266026
21
16.238679055248014
31
5.5511151231257827e-16
0
LINE
5
113
100
AcDbEntity
8
0
100
AcDbLine
10
-1.7067539438288422
20
16.238679055269365
30
-5.5511151231257827e-16
11
-1.4435632557990308
21
13.734586928396144
31
0
0
CIRCLE
5
114
100
AcDbEntity
8
0
100
AcDbCircle
10
0
20
0
30
-5.5511151231257827e-16
40
17.5
210
0
220
0
230
1
6
DASHED
0
ARC
5
115
100
AcDbEntity
8
0
100
AcDbCircle
10
-3.8945987918290395e-15
20
1.950584411349429e-30
30
0
40
15.520000000000007
210
0
220
-0
230
1
100
AcDbArc
50
77.499999999999972
51
82.915118900798134
0
ARC
5
116
100
AcDbEntity
8
0
100
AcDbCircle
10
-3.8945987918290395e-15
20
1.950584411349429e-30
30
0
40
15.520000000000007
210
0
220
-0
230
1
100
AcDbArc
50
82.915118900798134
51
85.114469018859708
0
ARC
5
117
100
AcDbEntity
8
0
100
AcDbCircle
10
-3.8945987918290395e-15
20
1.950584411349429e-30
30
0
40
15.519999999999994
210
0
220
0
230
1
100
AcDbArc
50
94.885530991386361
51
97.084881099201809
0
ARC
5
118
100
AcDbEntity
8
0
100
AcDbCircle
10
-3.8945987918290395e-15
20
1.950584411349429e-30
30
0
40
15.519999999999994
210
0
220
0
230
1
100
AcDbArc
50
97.084881099201809
51
102.49999999999997
0
LWPOLYLINE
5
119
100
AcDbEntity
8
0
100
AcDbPolyline
90
8
70
1
43
0.0
10
1.7419198244696679
20
13.703228389988144
10
2.0197375891692189
20
16.346487855197122
10
2.0206054034111927
20
16.35474455617382
42
0.42134056755704291
10
1.3806930202292291
20
17.125650538250483
42
0.040245382826898379
10
-1.3806930197318272
20
17.125650538290579
42
0.42134056776690182
10
-2.020605403411186
20
16.35474455617382
10
-2.0197375891719389
20
16.346487855223057
10
-1.7419198244095122
20
13.703228389415846
0
LINE
5
120
100
AcDbEntity
8
0
100
AcDbLine
10
1.3217656318030344
20
15.46361327809851
30
0
11
-1.3217656345683595
21
15.46361327786213
31
0
0
LINE
5
121
100
AcDbEntity
8
0
100
AcDbLine
10
1.7067539438310917
20
16.238679055290724
30
-5.5511151231257827e-16
11
1.7222488348007099
21
16.386103095154112
31
-5.5511151231257827e-16
0
ARC
5
122
100
AcDbEntity
8
0
100
AcDbCircle
10
1.3244400766534026
20
16.42791448046118
30
-5.5511151231257827e-16
40
0.39999999999999819
210
0
220
0
230
1
100
AcDbArc
50
-6.0000000000007976
51
85.390708117708229
0
ARC
5
123
100
AcDbEntity
8
0
100
AcDbCircle
10
2.6810088289051778e-15
20
-2.7363485812639422e-32
30
-5.5511151231257827e-16
40
16.88121705742606
210
0
220
-0
230
1
100
AcDbArc
50
85.390708117707945
51
94.609291882292069
0
ARC
5
124
100
AcDbEntity
8
0
100
AcDbCircle
10
-1.3244400766534006
20
16.42791448046118
30
-5.5511151231257827e-16
40
0.39999999999999419
210
0
220
0
230
1
100
AcDbArc
50
94.609291882291075
51
186.00000000000088
0
LINE
5
125
100
AcDbEntity
8
0
100
AcDbLine
10
-1.7222488348007037
20
16.386103095154112
30
-5.5511151231257827e-16
11
-1.7067539438288422
21
16.238679055269369
31
-5.5511151231257827e-16
0
ENDSEC
0
SECTION
2
OBJECTS
0
DICTIONARY
5
C
100
AcDbDictionary
3
ACAD_GROUP
350
D
3
ACAD_MLINESTYLE
350
17
0
DICTIONARY
5
D
100
AcDbDictionary
0
DICTIONARY
5
1A
330
C
100
AcDbDictionary
0
DICTIONARY
5
17
100
AcDbDictionary
0
ENDSEC
0
EOF
